<?xml version="1.0" encoding="UTF-8"?>
<svg version="1.1" xmlns="http://www.w3.org/2000/svg" width="1024" height="1024">
<path d="M0 0 C337.92 0 675.84 0 1024 0 C1024 337.92 1024 675.84 1024 1024 C686.08 1024 348.16 1024 0 1024 C0 686.08 0 348.16 0 0 Z " fill="#050504" transform="translate(0,0)"/>
<path d="M0 0 C4.99617607 0.07863999 9.61269691 1.51057698 14.39453125 2.8515625 C23.08563759 5.20916619 31.79875464 7.36465602 40.58203125 9.3515625 C48.79444733 11.21495465 56.94955246 13.17954781 65.06640625 15.421875 C67.83138261 16.15967957 70.59158819 16.77863389 73.39453125 17.3515625 C77.08203125 18.2265625 77.08203125 18.2265625 79.08203125 20.2265625 C80.35830147 30.1417739 78.10645167 40.54998224 76.64453125 50.3515625 C76.18415939 53.49951928 75.72850331 56.64814744 75.2734375 59.796875 C75.16383698 60.54737122 75.05423645 61.29786743 74.9413147 62.07110596 C74.27987625 66.65279277 73.76752683 71.2254705 73.35940552 75.83708191 C73.0811571 78.23409298 72.64273343 80.53707537 72.140625 82.89672852 C71.11568806 87.9147192 70.35692547 92.93660844 69.6796875 98.01171875 C69.55645615 98.91168076 69.43322479 99.81164276 69.30625916 100.73887634 C68.7868351 104.53256549 68.27443305 108.32719233 67.76196289 112.12182617 C59.66235492 171.92194269 59.66235492 171.92194269 42.08203125 191.2265625 C41.06689453 192.36158203 41.06689453 192.36158203 40.03125 193.51953125 C32.34708545 201.66774837 23.91825804 206.62814182 13.58203125 210.6640625 C6.20683331 213.54888018 0.16090847 217.07250591 -5.91796875 222.2265625 C-6.55863281 222.7215625 -7.19929688 223.2165625 -7.859375 223.7265625 C-25.24985206 238.66603273 -30.53790205 274.90104982 -33.21362305 296.62719727 C-33.99276298 307.69098432 -32.15181006 316.73358169 -25.04296875 325.3515625 C-18.66476282 331.97144674 -10.80743656 336.5033146 -2.83203125 340.9453125 C-1.48238281 341.70328125 -1.48238281 341.70328125 -0.10546875 342.4765625 C0.68472656 342.89421875 1.47492188 343.311875 2.2890625 343.7421875 C4.08203125 345.2265625 4.08203125 345.2265625 4.96875 347.7734375 C5.00613281 348.58296875 5.04351562 349.3925 5.08203125 350.2265625 C2.24873438 353.05985937 0.35707897 352.52664072 -3.60546875 352.5390625 C-4.80558594 352.55582031 -6.00570312 352.57257813 -7.2421875 352.58984375 C-19.71415596 352.00736171 -32.44283372 348.03782355 -44.54296875 345.1015625 C-45.33812897 344.90880737 -46.13328918 344.71605225 -46.95254517 344.51745605 C-58.09704673 341.80064764 -69.14119895 338.84941213 -80.10546875 335.4765625 C-81.26062988 335.1244873 -82.41579102 334.77241211 -83.60595703 334.40966797 C-99.89115991 329.25337134 -99.89115991 329.25337134 -104.91796875 324.2265625 C-104.55115217 321.29202989 -104.05359629 320.36219004 -101.91796875 318.2265625 C-99.87768555 317.97119141 -99.87768555 317.97119141 -97.3671875 317.953125 C-96.44703857 317.93548096 -95.52688965 317.91783691 -94.57885742 317.8996582 C-93.10703003 317.87585083 -93.10703003 317.87585083 -91.60546875 317.8515625 C-76.99428726 317.38297545 -64.86709844 314.57373902 -54.29296875 303.7890625 C-43.01840149 290.06123292 -38.82004954 270.43947458 -35.37207031 253.43017578 C-34.94011194 251.33401652 -34.47593787 249.24759629 -34.00390625 247.16015625 C-30.83581589 232.64362896 -29.35950783 217.61003566 -36.91796875 204.2265625 C-39.34477797 200.53749269 -41.92143291 196.96077649 -44.53198242 193.40014648 C-48.51069581 187.94976092 -51.5763457 182.58092285 -53.91796875 176.2265625 C-54.22089844 175.47375 -54.52382813 174.7209375 -54.8359375 173.9453125 C-57.02520634 168.10726226 -57.65177309 162.42972802 -57.91796875 156.2265625 C-57.97082031 155.14246094 -58.02367187 154.05835938 -58.078125 152.94140625 C-58.52355965 135.76312212 -53.03875442 120.9882182 -46.91796875 105.2265625 C-46.6019873 104.4109082 -46.28600586 103.59525391 -45.96044922 102.75488281 C-41.3440492 90.90930312 -36.43180228 79.18180718 -31.56054688 67.43945312 C-28.07038906 59.02484862 -24.60535365 50.60040436 -21.16796875 42.1640625 C-20.71566895 41.05434082 -20.26336914 39.94461914 -19.79736328 38.80126953 C-17.70906805 33.66713047 -15.63480511 28.52811549 -13.59375 23.375 C-13.05476074 22.01580444 -13.05476074 22.01580444 -12.50488281 20.62915039 C-11.85105774 18.976045 -11.20034376 17.32170344 -10.55371094 15.66577148 C-4.50297167 0.34962832 -4.50297167 0.34962832 0 0 Z " fill="#BB8C3E" transform="translate(429.91796875,390.7734375)"/>
<path d="M0 0 C3.01154635 3.24747562 4.7797889 6.36837101 6.33984375 10.48828125 C6.75621094 11.57052979 7.17257812 12.65277832 7.6015625 13.76782227 C8.04242187 14.93756592 8.48328125 16.10730957 8.9375 17.3125 C9.9135989 19.84965898 10.89139838 22.38610806 11.87109375 24.921875 C12.12454559 25.58038956 12.37799744 26.23890411 12.63912964 26.91737366 C15.50050723 34.3365931 18.49648613 41.69994737 21.5 49.0625 C22.05404787 50.42370898 22.60800283 51.78495578 23.16186523 53.14624023 C25.69975161 59.37994498 28.24861529 65.60896592 30.8125 71.83203125 C36.05464893 84.57863071 41.12774463 97.38178734 46.0625 110.25 C46.34657715 110.98837097 46.6306543 111.72674194 46.92333984 112.48748779 C47.73493231 114.59971981 48.5420799 116.71359221 49.34765625 118.828125 C49.81179932 120.0440332 50.27594238 121.25994141 50.75415039 122.51269531 C56.93439754 139.81205849 58.18297337 162.8700889 50.30078125 179.80078125 C46.77632354 186.88615044 42.53784432 193.25863878 37.7578125 199.56640625 C28.11340684 212.91855009 28.28947221 228.60987802 30.72265625 244.39453125 C31.61605925 249.31324549 32.75994621 254.15840734 34 259 C34.19787109 259.79164551 34.39574219 260.58329102 34.59960938 261.39892578 C41.75963804 289.90962851 41.75963804 289.90962851 60.625 311.25 C70.80387866 316.87991076 81.11740841 317.39184284 92.52246094 317.62231445 C93.44446289 317.64511475 94.36646484 317.66791504 95.31640625 317.69140625 C96.14599854 317.70373291 96.97559082 317.71605957 97.83032227 317.72875977 C100 318 100 318 103 320 C102.50915671 324.54030042 102.50915671 324.54030042 100.32104492 326.51586914 C91.74767552 331.99788372 80.90040417 334.35976715 71.1875 337.0625 C69.95338379 337.40974121 68.71926758 337.75698242 67.44775391 338.11474609 C58.66764091 340.57068135 49.87837421 342.92402721 41 345 C39.47052734 345.35989014 39.47052734 345.35989014 37.91015625 345.72705078 C34.39941145 346.55143822 30.88753057 347.37075584 27.375 348.1875 C26.24690918 348.44998535 25.11881836 348.7124707 23.95654297 348.98291016 C22.88549316 349.22960449 21.81444336 349.47629883 20.7109375 349.73046875 C19.75493652 349.95114014 18.79893555 350.17181152 17.81396484 350.39916992 C12.39989986 351.55516627 7.29262561 352.15801795 1.75 352.1875 C0.52796875 352.20167969 -0.6940625 352.21585938 -1.953125 352.23046875 C-5 352 -5 352 -7 350 C-6.9921875 347.6171875 -6.9921875 347.6171875 -6 345 C-3.4453125 343.0078125 -3.4453125 343.0078125 -0.125 341.125 C1.06403512 340.42878325 2.25283338 339.73216185 3.44140625 339.03515625 C4.62711683 338.35591941 5.81329616 337.67750001 7 337 C16.86288911 331.28588747 25.89807248 324.95024914 29.29589844 313.50708008 C32.09757675 299.55211857 29.65925675 285.64594906 26.00219727 272.11547852 C25.30763024 269.54447411 24.64824147 266.96633236 23.99414062 264.38476562 C19.50841326 246.9616329 14.24173234 227.27169222 -1.9453125 217.16015625 C-7.04378148 214.3095938 -12.0876052 211.86430914 -17.625 210 C-34.37432198 204.15103042 -48.28470293 189.75431289 -56 174 C-61.62375548 161.23532336 -65.06674818 148.1654623 -67 134.375 C-67.17023682 133.19695801 -67.34047363 132.01891602 -67.51586914 130.80517578 C-68.7464499 122.15813299 -69.78987107 113.49571852 -70.78955078 104.81958008 C-71.80496625 96.20594043 -73.05863722 87.6343048 -74.375 79.0625 C-74.5323764 78.03648682 -74.5323764 78.03648682 -74.69293213 76.98974609 C-75.12383518 74.18306886 -75.55569159 71.37654004 -75.98852539 68.57015991 C-77.16760434 60.92444799 -78.33310148 53.27679252 -79.47515869 45.62545776 C-79.69774331 44.1405602 -79.92227081 42.65595241 -80.14886475 41.17166138 C-80.46470183 39.10210661 -80.77407966 37.03167828 -81.08203125 34.9609375 C-81.25968018 33.78321777 -81.4373291 32.60549805 -81.62036133 31.39208984 C-82.66752285 22.03565112 -82.66752285 22.03565112 -80.80737305 19.1496582 C-78.58262089 17.73450787 -76.6573544 17.1840843 -74.08203125 16.60546875 C-72.58917603 16.26008057 -72.58917603 16.26008057 -71.06616211 15.90771484 C-69.45559937 15.5512085 -69.45559937 15.5512085 -67.8125 15.1875 C-65.53879891 14.66390374 -63.26536781 14.13913388 -60.9921875 13.61328125 C-59.83041992 13.34725098 -58.66865234 13.0812207 -57.47167969 12.80712891 C-52.11068292 11.56075371 -46.77413183 10.22128179 -41.4375 8.875 C-39.45703362 8.37759473 -37.47656493 7.88019864 -35.49609375 7.3828125 C-34.09979736 7.03138184 -34.09979736 7.03138184 -32.67529297 6.67285156 C-28.78458929 5.69431722 -24.8923321 4.72203256 -21 3.75 C-19.824375 3.45609375 -18.64875 3.1621875 -17.4375 2.859375 C-16.303125 2.57578125 -15.16875 2.2921875 -14 2 C-13.3080957 1.82267334 -12.61619141 1.64534668 -11.90332031 1.46264648 C-3.79397765 -0.60358735 -3.79397765 -0.60358735 0 0 Z " fill="#B2853A" transform="translate(596,391)"/>
<path d="M0 0 C0.7734375 0.3403125 0.7734375 0.3403125 1.5625 0.6875 C1.61790086 2.47879459 1.65590527 4.27062742 1.6875 6.0625 C1.71070313 7.06023437 1.73390625 8.05796875 1.7578125 9.0859375 C1.5580816 12.76897534 0.90758772 16.1001688 0.14208984 19.69726562 C-0.66671528 23.87007317 -1.22107857 28.06947422 -1.79702759 32.27975464 C-8.00360565 77.57459691 -8.00360565 77.57459691 -16.4375 93.6875 C-17.09492188 94.96173828 -17.09492188 94.96173828 -17.765625 96.26171875 C-24.45220288 108.25714555 -34.01050668 117.83853046 -47.0625 122.625 C-55.80694309 124.84603267 -66.69536107 125.51418948 -75 121.625 C-77.30078125 120.2265625 -77.30078125 120.2265625 -79.4375 118.6875 C-80.15292969 118.17960938 -80.86835938 117.67171875 -81.60546875 117.1484375 C-92.24978288 108.7208567 -96.63740341 95.78534568 -98.4375 82.6875 C-99.64124463 65.27950068 -93.89470117 50.48651199 -87.4375 34.6875 C-86.71336914 32.90520996 -86.71336914 32.90520996 -85.97460938 31.08691406 C-84.67862192 27.90765744 -83.36401816 24.73658628 -82.03707886 21.57012939 C-81.26435521 19.7218365 -80.50134462 17.86949242 -79.73852539 16.01708984 C-79.25375732 14.8770752 -78.76898926 13.73706055 -78.26953125 12.5625 C-77.84389893 11.54929687 -77.4182666 10.53609375 -76.97973633 9.4921875 C-75.21946842 6.29099109 -73.11504781 4.15157839 -70.4375 1.6875 C-70.1075 1.3575 -69.7775 1.0275 -69.4375 0.6875 C-60.88690016 0.13626193 -52.43927756 0.81583324 -43.9375 1.6875 C-35.95287012 2.48232471 -28.02503613 2.93295278 -20 3 C-18.57107422 3.02610352 -18.57107422 3.02610352 -17.11328125 3.05273438 C-12.85394283 3.04969199 -9.42266505 2.9202521 -5.52734375 1.10546875 C-2.4375 -0.3125 -2.4375 -0.3125 0 0 Z " fill="#CEAA55" transform="translate(485.4375,464.3125)"/>
<path d="M0 0 C2.88533846 0.43717249 5.57062473 1.17430233 8.36328125 2.02734375 C14.22150536 3.48805931 20.12245786 3.29646701 26.125 3.25 C27.33188477 3.24613281 28.53876953 3.24226563 29.78222656 3.23828125 C36.97941369 3.1683113 43.77015298 2.68497367 50.859375 1.46484375 C54.57330614 0.91514499 58.2518637 0.66118326 62 0.5625 C63.19625 0.52253906 64.3925 0.48257812 65.625 0.44140625 C69.97992898 1.16218732 72.35790928 2.56119406 75 6 C77.26335192 10.14159049 79.03993799 14.44215706 80.8125 18.8125 C81.33167543 20.06407119 81.85170627 21.31528785 82.37255859 22.56616211 C83.94500521 26.36560267 85.47744071 30.18034081 87 34 C87.45971191 35.14919922 87.91942383 36.29839844 88.39306641 37.48242188 C89.65623561 40.6687439 90.89731891 43.86235315 92.125 47.0625 C92.49085205 48.00520752 92.8567041 48.94791504 93.23364258 49.91918945 C99.72871178 67.30182161 100.37925281 86.79665048 92.7421875 103.96875 C87.17820452 113.64958137 79.63034378 120.45655207 69 124 C53.42754292 125.02362056 41.74986036 122.43231167 29.6875 112 C19.5308596 102.39236719 14.17731374 91.10042495 10 78 C9.63853882 76.902323 9.63853882 76.902323 9.26977539 75.7824707 C6.3564204 66.14555125 5.29286902 56.13350405 3.9375 46.1875 C3.67969788 44.33259024 3.42123855 42.47777171 3.16210938 40.62304688 C2.66312202 37.04690129 2.16900426 33.47013602 1.6784668 29.89282227 C1.25924702 26.84678804 0.82842349 23.80307549 0.37817383 20.76147461 C0.19665771 19.53307861 0.0151416 18.30468262 -0.171875 17.0390625 C-0.32881836 15.99830566 -0.48576172 14.95754883 -0.64746094 13.88525391 C-1.16931827 9.61426365 -1.40208935 5.29207009 -1 1 C-0.67 0.67 -0.34 0.34 0 0 Z " fill="#D0AB56" transform="translate(538,464)"/>
<path d="M0 0 C2.95447114 5.73582712 5.53277969 11.52530277 7.93359375 17.51171875 C8.29340836 18.4018013 8.65322296 19.29188385 9.02394104 20.2089386 C9.78092809 22.08325138 10.53635168 23.9581963 11.2902832 25.83374023 C12.42777945 28.66331964 13.56988481 31.49100168 14.71289062 34.31835938 C18.16512538 42.87039005 21.57498904 51.43342029 24.86157227 60.05053711 C26.9171216 65.37609824 29.08701541 70.65487852 31.25 75.9375 C31.72381104 77.09975098 32.19762207 78.26200195 32.68579102 79.45947266 C34.96327733 85.04207761 37.25327034 90.6189102 39.57421875 96.18359375 C49.59468391 120.26516509 55.68958243 142.02512894 45.71484375 167.25 C39.94054903 179.86015895 31.23859037 188.38855613 18.375 193.3125 C7.25587743 196.74346351 -3.47459682 195.84025344 -14 191 C-33.36983807 180.71560179 -44.00862874 164.83522802 -50.51171875 144.35546875 C-52.14493418 138.82045428 -53.08535886 133.26296728 -53.9375 127.5625 C-54.1857251 125.9547168 -54.1857251 125.9547168 -54.43896484 124.31445312 C-54.96686106 120.87740593 -55.4837693 117.43881682 -56 114 C-56.35790045 111.65492159 -56.71597352 109.30986952 -57.07421875 106.96484375 C-58.73452529 96.0080442 -60.33135888 85.05931173 -61.5078125 74.0390625 C-62.01402176 69.60021845 -62.73139888 65.19570891 -63.42041016 60.78222656 C-64.43131185 54.1853904 -65.36176578 47.57732482 -66.28710938 40.96801758 C-66.51416553 39.35155491 -66.74303497 37.735346 -66.97363281 36.11938477 C-67.31194479 33.74810371 -67.64484687 31.37611796 -67.9765625 29.00390625 C-68.07965729 28.28819962 -68.18275208 27.57249298 -68.28897095 26.83509827 C-68.838012 22.85816699 -69.10270247 19.01362812 -69 15 C-66.45988177 14.39037163 -63.91976247 13.78074773 -61.37963867 13.17114258 C-59.14410667 12.63459515 -56.90859272 12.09797249 -54.6730957 11.5612793 C-48.84758242 10.16281413 -43.02180144 8.76548888 -37.1953125 7.37109375 C-36.103396 7.1095752 -35.01147949 6.84805664 -33.88647461 6.57861328 C-31.81708936 6.08302213 -29.7475977 5.58787502 -27.67797852 5.09326172 C-26.23442993 4.74739014 -26.23442993 4.74739014 -24.76171875 4.39453125 C-23.82215332 4.16950928 -22.88258789 3.9444873 -21.91455078 3.71264648 C-19.85757834 3.20968933 -17.8041385 2.69217673 -15.75341797 2.16430664 C-14.6913916 1.89094482 -13.62936523 1.61758301 -12.53515625 1.3359375 C-11.57617432 1.08505371 -10.61719238 0.83416992 -9.62915039 0.57568359 C-6.29644366 -0.15405199 -3.39249956 -0.23130679 0 0 Z M-54 63 C-55.55922868 64.55922868 -55.15804296 66.03356772 -55.16796875 68.203125 C-55.09677825 74.78999678 -54.22152551 81.23403686 -53.3125 87.75 C-53.13315918 89.04969727 -52.95381836 90.34939453 -52.76904297 91.68847656 C-52.19630709 95.79482148 -51.5998576 99.89754382 -51 104 C-50.90334045 104.66837891 -50.80668091 105.33675781 -50.70709229 106.02539062 C-48.42486781 121.77901911 -46.11396783 137.22056596 -40 152 C-39.56171875 153.09828125 -39.1234375 154.1965625 -38.671875 155.328125 C-32.71846064 168.67198477 -21.4746736 179.52788194 -8.078125 185.23828125 C0.07089183 188.22523291 11.90103838 188.78799477 20.0625 185.4375 C32.83137563 178.41215337 39.01312147 167.63255238 43 154 C43.65782679 151.29130144 43.92464619 148.7830672 44 146 C44.05027344 144.97648437 44.10054687 143.95296875 44.15234375 142.8984375 C44.56500403 128.0096547 40.28382019 115.22383314 34.75 101.625 C34.19565809 100.23475601 33.64227009 98.84413127 33.08984375 97.453125 C31.70936277 93.99179132 30.29610131 90.54512979 28.86694336 87.1036377 C27.9722749 84.93272506 27.1007991 82.75323215 26.22851562 80.57324219 C25.63783313 79.13951434 25.04607182 77.70623038 24.453125 76.2734375 C24.06698029 75.28798447 24.06698029 75.28798447 23.67303467 74.28262329 C21.60389099 69.38124466 19.27689534 66.97060851 15 64 C11.59844416 63.32366271 11.59844416 63.32366271 8 63.5625 C7.3390332 63.57990234 6.67806641 63.59730469 5.99707031 63.61523438 C1.84660711 63.76991002 -2.16288594 64.29656454 -6.25 65 C-13.45213691 66.15896456 -20.58806111 66.22665066 -27.875 66.25 C-29.62345215 66.26353516 -29.62345215 66.26353516 -31.40722656 66.27734375 C-37.64039082 66.2558439 -43.03592353 65.82177946 -49 64 C-51.77888613 63.30859478 -51.77888613 63.30859478 -54 63 Z " fill="#121210" transform="translate(592,401)"/>
<path d="M0 0 C2.35579215 0.40862623 4.70929477 0.82690286 7.0625 1.25 C7.69994141 1.35957031 8.33738281 1.46914063 8.99414062 1.58203125 C14.37187186 2.55980057 19.60680662 3.94036665 24.87911987 5.37600708 C29.8178276 6.71023666 34.77723974 7.91955125 39.76171875 9.0703125 C40.49463638 9.2398645 41.22755402 9.4094165 41.98268127 9.58410645 C44.98618518 10.27693612 47.99047539 10.96620666 50.99584961 11.65087891 C53.23134984 12.16126709 55.46534023 12.67787974 57.69921875 13.1953125 C58.37522629 13.34743195 59.05123383 13.49955139 59.74772644 13.65628052 C63.09545469 14.43551175 65.96727668 15.40210047 69 17 C68.38669312 26.12485603 67.43500096 35.16612918 66.2578125 44.234375 C66.08689356 45.56510229 65.91615178 46.89585235 65.74557495 48.22662354 C65.38970628 50.99674825 65.03141634 53.76654593 64.67138672 56.53613281 C64.21709407 60.03268676 63.76943056 63.53005273 63.32347584 67.02767849 C61.66974724 79.97548231 59.9738915 92.88819121 57.58105469 105.72412109 C56.83105079 109.95250443 56.40219839 114.16047872 56.0625 118.4375 C53.60940398 144.14722062 45.61518037 167.95144867 25.453125 185.17578125 C13.04574445 194.40228876 -0.95431838 196.38100459 -16 195 C-27.19841369 192.48556976 -35.40488649 185.21857003 -41.69482422 175.87597656 C-49.25516098 163.85826293 -52.29299064 150.13783185 -51 136 C-50.90203125 134.89785156 -50.8040625 133.79570313 -50.703125 132.66015625 C-47.64593773 110.95875875 -36.56021533 89.73077397 -28.19848633 69.59741211 C-24.49027832 60.66433794 -20.88225728 51.701862 -17.375 42.6875 C-11.80166936 28.3666308 -5.92610093 14.17769314 0 0 Z M47.07080078 66.27490234 C42.98287249 67.70630379 38.72010832 67.39073439 34.4375 67.3125 C32.93316406 67.29993164 32.93316406 67.29993164 31.3984375 67.28710938 C24.39523968 67.17754746 17.46762709 66.69090346 10.5 66 C0.98452472 65.05338485 0.98452472 65.05338485 -8.5625 64.5625 C-10.26599609 64.50255859 -10.26599609 64.50255859 -12.00390625 64.44140625 C-16.19480446 65.22276015 -17.38469368 66.63867438 -20 70 C-24.44369557 77.57362624 -27.60160402 85.89761656 -30.9375 94 C-31.19979401 94.63496399 -31.46208801 95.26992798 -31.73233032 95.9241333 C-34.92357661 103.66788673 -38.02627719 111.42992487 -40.6875 119.375 C-40.91880615 120.06207031 -41.1501123 120.74914062 -41.38842773 121.45703125 C-46.41356591 137.1091655 -44.55924665 153.7963696 -37.625 168.5625 C-32.54284542 177.71650132 -25.1177768 184.62740773 -15 188 C-0.23900599 188.81918003 10.97974005 187.3548232 23 178 C43.95771771 159.12252983 47.85472359 130.28003135 51.5625 103.75 C51.97695182 100.80678215 52.39489639 97.86409027 52.81640625 94.921875 C52.96574615 93.87361038 52.96574615 93.87361038 53.11810303 92.8041687 C53.67662033 88.96153522 54.33681485 85.16488416 55.14453125 81.3671875 C55.92719836 77.65432457 56.21357887 74.18389123 56.125 70.375 C56.10695313 69.35148437 56.08890625 68.32796875 56.0703125 67.2734375 C56.04710937 66.52320313 56.02390625 65.77296875 56 65 C52.36307195 63.39975166 50.48235621 64.6854997 47.07080078 66.27490234 Z " fill="#131210" transform="translate(431,400)"/>
<path d="M0 0 C6.58560691 4.51712257 11.3543241 10.01542432 13 18 C13.86770789 25.18348338 12.32270203 31.59846399 9 38 C5.84950306 41.73453162 2.38000123 43.74210513 -2.5234375 44.2734375 C-10.2768595 44.54958678 -10.2768595 44.54958678 -14.125 41.625 C-17.06904477 37.50333733 -17.44062625 35.11126446 -17 30 C-15.25 27.5625 -15.25 27.5625 -13 26 C-11.68 26 -10.36 26 -9 26 C-8.505 30.455 -8.505 30.455 -8 35 C-3.02006889 33.99058985 -3.02006889 33.99058985 0.9375 31 C2.70264526 26.01606043 3.19695621 20.92589296 1.15625 15.9375 C-2.33147664 10.47025284 -7.35315968 8.15163379 -13.375 6.25 C-28.59842471 4.80015003 -39.88449652 9.84330555 -51.78125 19.18359375 C-64.01966961 29.65156782 -71.25461253 42.6164532 -78 57 C-78.66157279 58.33586813 -79.32524861 59.67073976 -80 61 C-80.66 61 -81.32 61 -82 61 C-83.19634836 44.11819533 -75.03901925 29.69882723 -64.3125 17.1875 C-48.53384863 0.77280997 -22.05998607 -12.56347615 0 0 Z " fill="#B1853C" transform="translate(719,572)"/>
<path d="M0 0 C16.09299403 11.51543128 29.35900713 27.06122951 33 47 C33.20365598 50.05483963 33.15077377 52.93426676 33 56 C30 55 30 55 28.203125 51.7890625 C27.54456699 50.40459205 26.89399419 49.01630463 26.25 47.625 C20.850006 36.44789319 14.74833944 26.89661638 6 18 C5.30132812 17.2884375 4.60265625 16.576875 3.8828125 15.84375 C-6.88722164 5.58657463 -19.05729816 0.37767074 -33.8046875 0.6171875 C-40.04102974 1.36432875 -44.28672987 4.15823461 -48.5 8.6875 C-51.55268467 13.3937222 -51.51282807 17.47188723 -51 23 C-49.83567931 25.48050929 -48.90574048 27.09425952 -47 29 C-45.00041636 29.04080783 -42.99954746 29.04254356 -41 29 C-40.67 26.36 -40.34 23.72 -40 21 C-37.40905378 21.35012787 -35.4225789 21.73770965 -33.1875 23.125 C-31.23410372 26.20930992 -31.51696637 28.43762695 -32 32 C-34.01985201 35.47476458 -36.1119315 37.70397717 -40 39 C-45.55841773 39.7799556 -49.79069588 39.6685252 -54.4375 36.3125 C-59.24235194 32.19543937 -61.64570374 28.00627312 -62.203125 21.703125 C-62.36895295 13.02479551 -60.26607239 6.73987769 -54.87890625 -0.10546875 C-39.85454595 -15.25477175 -16.15960014 -10.24134887 0 0 Z " fill="#C19241" transform="translate(354,577)"/>
<path d="M0 0 C2.125 0.375 2.125 0.375 4 1 C4.2475 1.94875 4.495 2.8975 4.75 3.875 C7.52829167 13.50119368 10.61111501 21.51880637 19.49609375 26.86328125 C24.41202335 29.09500592 29.71758743 30.00954764 35 31 C34.67 32.65 34.34 34.3 34 36 C33.32195312 36.13535156 32.64390625 36.27070313 31.9453125 36.41015625 C22.65539145 38.558933 14.25557109 42.79323753 8.95703125 51.03125 C7.42043176 54.19225467 6.47151592 57.47151224 5.578125 60.86328125 C5 63 5 63 4 65 C2.35 64.67 0.7 64.34 -1 64 C-1.15855469 63.443125 -1.31710937 62.88625 -1.48046875 62.3125 C-4.64780528 51.95303466 -9.56959536 44.91415935 -18.875 39.25 C-22.83779175 37.6648833 -26.8150897 36.79048306 -31 36 C-31.625 34.125 -31.625 34.125 -32 32 C-29.49532367 29.49532367 -27.88500851 29.43685993 -24.4375 28.75 C-16.7885143 26.90653942 -10.67886623 23.86129861 -6.0625 17.3125 C-3.73415407 13.1900519 -3.0473811 8.97823767 -2.45703125 4.3203125 C-2 2 -2 2 0 0 Z " fill="#CA9841" transform="translate(510,330)"/>
<path d="M0 0 C11.73269313 -1.15026403 22.12055235 4.84429504 31 12 C31.82113281 12.65742187 32.64226562 13.31484375 33.48828125 13.9921875 C47.15335314 25.59580997 59.25883157 42.91936381 62 61 C62.19458908 64.3532677 62.19634451 67.64759935 62 71 C61.34 71 60.68 71 60 71 C59.64808594 70.09378906 59.29617188 69.18757812 58.93359375 68.25390625 C54.00055004 56.08229711 46.7868606 43.54118235 34.125 38 C29.18326587 36.49470223 24.09379822 36.16560248 19 37 C15.59717579 38.81671123 15.59717579 38.81671123 14 42 C14.06814151 46.02034924 14.1176825 48.1176825 17 51 C19.41482413 51.50059916 19.41482413 51.50059916 22 51 C22.680625 50.319375 23.36125 49.63875 24.0625 48.9375 C25.0215625 47.9784375 25.0215625 47.9784375 26 47 C28.21844626 47.19015254 29.41522155 47.41522155 31 49 C31.43328524 52.81291008 31.29274175 54.54574556 29.1875 57.8125 C26.13167137 60.86832863 23.42243226 61.22369524 19.25 61.4375 C14.29709102 61.40129452 11.90830452 60.06655911 8.375 56.703125 C4.62652108 52.06012271 4.52068928 47.88407545 4.61328125 42.05078125 C5.3203252 36.47299006 8.04765876 32.83401752 12.0625 29.0625 C16.44143307 26.66114961 20.86414124 26.87746582 25.75 26.9375 C26.44738281 26.94201172 27.14476562 26.94652344 27.86328125 26.95117188 C29.57555803 26.9628998 31.28779033 26.98083347 33 27 C25.09514852 19.29143151 16.5813499 13.64881499 6.94921875 8.30859375 C6.03785156 7.79425781 5.12648438 7.27992188 4.1875 6.75 C2.97126953 6.09257813 2.97126953 6.09257813 1.73046875 5.421875 C1.15941406 4.95265625 0.58835937 4.4834375 0 4 C0 2.68 0 1.36 0 0 Z " fill="#B98B3D" transform="translate(320,587)"/>
<path d="M0 0 C0 1.32 0 2.64 0 4 C-2.6247596 5.83733172 -5.22692577 7.40782375 -8 9 C-17.7542006 14.90982778 -26.47428013 21.42315593 -35 29 C-34.45859375 28.67644531 -33.9171875 28.35289062 -33.359375 28.01953125 C-27.7842569 25.61041565 -20.35039435 26.27193266 -14.625 28.0625 C-9.7684359 30.17140466 -6.33786163 34.32427673 -4 39 C-3.27781492 46.13897709 -3.55039765 51.26235486 -8 57 C-11.55850957 60.30433032 -14.3160508 61.28136712 -19.0625 61.5 C-22.6373437 61.36002118 -23.91793063 61.05024655 -27.0625 59.125 C-30.18323628 55.70225698 -30.19435808 53.56741479 -30 49 C-29 48 -29 48 -26.5625 47.75 C-25.716875 47.8325 -24.87125 47.915 -24 48 C-23.34 48.99 -22.68 49.98 -22 51 C-19 51.41666667 -19 51.41666667 -16 51 C-13.5717978 49.00442887 -13.5717978 49.00442887 -13.6875 45.0625 C-13.75523629 42.391755 -13.79257386 41.3062005 -15.3125 39.0625 C-19.82068514 36.22401306 -24.87560845 36.36126564 -30 37 C-33.62554296 38.24796138 -36.76470291 39.95463422 -40 42 C-40.61617187 42.38800781 -41.23234375 42.77601563 -41.8671875 43.17578125 C-50.45468081 49.56693411 -56.13673576 61.2578554 -60 71 C-60.66 71 -61.32 71 -62 71 C-62.20472301 65.40423771 -61.70161753 60.72038352 -59.9375 55.375 C-59.71416992 54.68768799 -59.49083984 54.00037598 -59.26074219 53.29223633 C-55.2363551 41.38196692 -49.50419737 31.32048158 -41 22 C-40.37480469 21.29359375 -39.74960937 20.5871875 -39.10546875 19.859375 C-31.10567407 11.30380511 -21.14842569 4.61570563 -10 1 C-6.52674819 -0.1577506 -3.63932552 -0.06866652 0 0 Z " fill="#AA7F38" transform="translate(703,587)"/>
<path d="M0 0 C1 1 1 1 1.2890625 3.83203125 C1 7 1 7 -0.4765625 8.94921875 C-1.54003906 9.80966797 -1.54003906 9.80966797 -2.625 10.6875 C-3.45257812 11.36941406 -4.28015625 12.05132812 -5.1328125 12.75390625 C-6.07898438 13.49511719 -7.02515625 14.23632812 -8 15 C-9.02867187 15.81339844 -10.05734375 16.62679688 -11.1171875 17.46484375 C-12.82749899 18.81264356 -14.54053558 20.15650955 -16.25976562 21.49291992 C-22.03745299 25.98916567 -27.68091242 30.64196033 -33.31445312 35.31689453 C-33.99701172 35.88263184 -34.67957031 36.44836914 -35.3828125 37.03125 C-35.98496582 37.53205078 -36.58711914 38.03285156 -37.20751953 38.54882812 C-42.65482911 42.95890823 -42.65482911 42.95890823 -45.625 43.3125 C-48 43 -48 43 -50 41 C-50.0234375 38.734375 -50.0234375 38.734375 -49 36 C-46.91755499 33.89995686 -44.91558979 32.09043337 -42.625 30.25 C-41.99231201 29.72559326 -41.35962402 29.20118652 -40.70776367 28.66088867 C-38.81435698 27.09565022 -36.90835955 25.5469471 -35 24 C-34.01386719 23.18660156 -33.02773438 22.37320312 -32.01171875 21.53515625 C-29.35107741 19.34426635 -26.67746639 17.17028113 -24 15 C-22.0822949 13.43877468 -20.16562569 11.87627607 -18.25 10.3125 C-17.34378906 9.57773437 -16.43757812 8.84296875 -15.50390625 8.0859375 C-13.3219 6.2681663 -11.25938949 4.37733499 -9.1875 2.4375 C-6.17819713 -0.18748226 -4.03831266 -0.67305211 0 0 Z " fill="#C49540" transform="translate(617,318)"/>
<path d="M0 0 C3.91156732 0.61965423 6.12245459 2.85079984 8.94921875 5.4375 C10.11364195 6.46330916 11.27901333 7.48804298 12.4453125 8.51171875 C13.01362793 9.01622559 13.58194336 9.52073242 14.16748047 10.04052734 C16.22902159 11.84698038 18.35827337 13.55457731 20.51171875 15.25 C25.99788493 19.59735738 31.38994978 24.05678772 36.78613281 28.51489258 C40.42255022 31.51774256 44.06765013 34.50546911 47.76171875 37.4375 C46.88671875 42.3125 46.88671875 42.3125 45.76171875 43.4375 C42.53057397 43.86869263 41.11135701 43.66774959 38.359375 41.85546875 C37.10447266 40.75138672 37.10447266 40.75138672 35.82421875 39.625 C34.86386719 38.80128906 33.90351563 37.97757812 32.9140625 37.12890625 C32.40343262 36.68820801 31.89280273 36.24750977 31.36669922 35.79345703 C28.60825984 33.46300794 25.74200825 31.2722561 22.88671875 29.0625 C17.53372603 24.8953761 12.31791401 20.59374536 7.19970703 16.14111328 C4.69892559 13.98537946 2.2349579 12.10019912 -0.55078125 10.31640625 C-3.23828125 8.4375 -3.23828125 8.4375 -4.23828125 5.3125 C-4.23828125 1.71084881 -3.57091369 0.69797964 0 0 Z " fill="#CA9C46" transform="translate(409.23828125,317.5625)"/>
<path d="M0 0 C4.55555556 0.55555556 4.55555556 0.55555556 6 2 C6.54280919 6.4798108 5.79905939 8.93222828 3.10473633 12.5402832 C2.46507935 13.35565552 2.46507935 13.35565552 1.8125 14.1875 C0.89345337 15.41228024 -0.02307763 16.63895093 -0.9375 17.8671875 C-1.43121094 18.52557617 -1.92492187 19.18396484 -2.43359375 19.86230469 C-5.85328456 24.52920194 -9.03979463 29.36269929 -12.26831055 34.1628418 C-15.96759252 39.61743975 -19.89695188 44.84269115 -24 50 C-28.875 49.125 -28.875 49.125 -30 48 C-30.43900095 43.82523096 -29.5636094 41.75661314 -27.17578125 38.3671875 C-26.56500732 37.48708008 -25.9542334 36.60697266 -25.32495117 35.70019531 C-24.66084229 34.76788086 -23.9967334 33.83556641 -23.3125 32.875 C-21.93993239 30.90897408 -20.56754002 28.94282581 -19.1953125 26.9765625 C-18.49696289 25.98430664 -17.79861328 24.99205078 -17.07910156 23.96972656 C-13.33836309 18.62656748 -9.69678284 13.21558844 -6.03833008 7.81591797 C-5.53454834 7.07744629 -5.0307666 6.33897461 -4.51171875 5.578125 C-4.07303467 4.93262695 -3.63435059 4.28712891 -3.18237305 3.62207031 C-2 2 -2 2 0 0 Z " fill="#C69943" transform="translate(578,298)"/>
<path d="M0 0 C2.67529297 0.35864258 2.67529297 0.35864258 4.62792969 2.33642578 C5.23910645 3.24739014 5.8502832 4.15835449 6.47998047 5.09692383 C7.51010254 6.60633545 7.51010254 6.60633545 8.56103516 8.14624023 C9.25874023 9.20633301 9.95644531 10.26642578 10.67529297 11.35864258 C11.6870459 12.85790283 11.6870459 12.85790283 12.71923828 14.38745117 C14.76399336 17.42896276 16.78530767 20.48484025 18.80029297 23.54614258 C24.92747052 32.85400279 24.92747052 32.85400279 31.64575195 41.73706055 C32.67529297 43.35864258 32.67529297 43.35864258 32.61279297 46.29614258 C31.67529297 48.35864258 31.67529297 48.35864258 30.67529297 49.35864258 C28.35058594 49.71923828 28.35058594 49.71923828 25.67529297 49.35864258 C23.72265625 47.36328125 23.72265625 47.36328125 21.87060547 44.58911133 C21.18385742 43.58283691 20.49710937 42.5765625 19.78955078 41.53979492 C19.0918457 40.49001465 18.39414062 39.44023437 17.67529297 38.35864258 C16.32174933 36.41498496 14.96501829 34.47354281 13.60498047 32.53442383 C11.56717643 29.5915835 9.53307982 26.64620811 7.49951172 23.70043945 C6.49984375 22.25701172 6.49984375 22.25701172 5.47998047 20.78442383 C4.52055542 19.39839966 4.52055542 19.39839966 3.54174805 17.984375 C1.36438924 14.92126264 -0.92968424 11.96636942 -3.29516602 9.04663086 C-4.32470703 7.35864258 -4.32470703 7.35864258 -4.26220703 3.92114258 C-2.99678678 0.46232722 -2.99678678 0.46232722 0 0 Z " fill="#CC9D46" transform="translate(443.32470703125,297.641357421875)"/>
<path d="M0 0 C2.5 0.25 2.5 0.25 4.5 2.25 C4.78710938 4.99975586 4.78710938 4.99975586 4.84375 8.46484375 C4.87339844 9.70814453 4.90304687 10.95144531 4.93359375 12.23242188 C4.95550781 13.53759766 4.97742188 14.84277344 5 16.1875 C5.04330878 18.75927732 5.09499419 21.3309313 5.15625 23.90234375 C5.17494141 25.04695068 5.19363281 26.19155762 5.21289062 27.37084961 C5.2921309 30.44671289 5.2921309 30.44671289 7.5 33.25 C7.95667063 36.8272533 7.93777431 38.58458305 5.9375 41.625 C2.6005787 43.8496142 0.43094707 43.75030235 -3.5 43.25 C-5.4375 42.25 -5.4375 42.25 -6.5 40.25 C-6.79335324 37.49358656 -6.68027693 35.04429237 -6.5 32.25 C-6.17 31.92 -5.84 31.59 -5.5 31.25 C-5.36581897 29.12895841 -5.29638337 27.00376334 -5.25390625 24.87890625 C-5.22103516 23.58275391 -5.18816406 22.28660156 -5.15429688 20.95117188 C-5.10683954 18.87952403 -5.06241301 16.80790479 -5.02319336 14.73608398 C-4.98354115 12.74183897 -4.93140464 10.74785444 -4.87890625 8.75390625 C-4.8538501 7.55580322 -4.82879395 6.3577002 -4.80297852 5.12329102 C-4.41450455 1.43920556 -3.7497103 0.37497103 0 0 Z " fill="#B98B3C" transform="translate(511.5,668.75)"/>
<path d="M0 0 C2.9309082 0.07470703 2.9309082 0.07470703 6 1 C7.73510742 3.08544922 7.73510742 3.08544922 9.10546875 5.8046875 C9.61400391 6.78050781 10.12253906 7.75632812 10.64648438 8.76171875 C11.40928711 10.30279297 11.40928711 10.30279297 12.1875 11.875 C13.21819149 13.89551293 14.25317562 15.91384334 15.29296875 17.9296875 C15.7418042 18.82929199 16.19063965 19.72889648 16.65307617 20.65576172 C17.91436924 22.85096492 19.1926049 24.26409482 21 26 C21.61003832 28.72593699 21.50170583 31.25772153 21 34 C19.4375 36.0625 19.4375 36.0625 17 37 C13.375 36.875 13.375 36.875 10 36 C7.97083488 32.95625232 7.7949898 32.28025116 7.66015625 28.859375 C7.17180326 23.55725685 5.11094734 19.77807467 2.4375 15.25 C-2.8107774 6.25067761 -2.8107774 6.25067761 -2 2 C-1.34 1.34 -0.68 0.68 0 0 Z " fill="#B7893D" transform="translate(549,657)"/>
<path d="M0 0 C3 0.125 3 0.125 4 1.125 C3.64096407 6.8915567 1.81505423 10.92678236 -0.9375 15.9375 C-3.81540848 21.36279734 -5.90592387 26.09605928 -6.453125 32.3046875 C-7 34.125 -7 34.125 -8.8515625 35.39453125 C-11.89058898 36.42780025 -13.94421386 35.98859174 -17 35.125 C-19.51250583 31.35624125 -19.53016086 29.59349866 -19 25.125 C-17.82440069 23.70926939 -16.64331835 22.29753702 -15.42797852 20.91577148 C-12.71788934 17.51715564 -10.79670088 13.63321257 -8.75 9.8125 C-7.87114074 8.19067447 -6.99100162 6.56954161 -6.109375 4.94921875 C-5.72749023 4.23854248 -5.34560547 3.52786621 -4.95214844 2.7956543 C-3.38373084 0.04368464 -3.43251234 0.14302135 0 0 Z " fill="#BC8D3D" transform="translate(472,657.875)"/>
<path d="M0 0 C1.4540625 0.0309375 1.4540625 0.0309375 2.9375 0.0625 C4.07242279 2.33234558 4.06970504 3.593051 4.08276367 6.11328125 C4.08914352 6.94754639 4.09552338 7.78181152 4.10209656 8.64135742 C4.10320938 9.54345947 4.1043222 10.44556152 4.10546875 11.375 C4.10879715 12.29966064 4.11212555 13.22432129 4.11555481 14.17700195 C4.12062221 16.13394675 4.12296319 18.09090021 4.12280273 20.04785156 C4.12499109 23.05027394 4.14315386 26.05233009 4.16210938 29.0546875 C4.16504289 30.95312374 4.16702797 32.85156173 4.16796875 34.75 C4.17515427 35.65210205 4.18233978 36.5542041 4.18974304 37.48364258 C4.18666641 38.31790771 4.18358978 39.15217285 4.18041992 40.01171875 C4.18184494 40.74737061 4.18326996 41.48302246 4.18473816 42.2409668 C3.9375 44.0625 3.9375 44.0625 1.9375 46.0625 C-2.61805556 45.50694444 -2.61805556 45.50694444 -4.0625 44.0625 C-4.16035341 42.71705673 -4.19047985 41.36657437 -4.19189453 40.01757812 C-4.19504669 39.15998901 -4.19819885 38.3023999 -4.20144653 37.41882324 C-4.1994223 36.48654907 -4.19739807 35.5542749 -4.1953125 34.59375 C-4.19626923 33.64310669 -4.19722595 32.69246338 -4.19821167 31.7130127 C-4.19889357 29.69881118 -4.19703862 27.68460748 -4.19287109 25.67041016 C-4.18752298 22.57579645 -4.19281577 19.4813279 -4.19921875 16.38671875 C-4.19855797 14.43489551 -4.19727681 12.48307236 -4.1953125 10.53125 C-4.19733673 9.59897583 -4.19936096 8.66670166 -4.20144653 7.70617676 C-4.19829437 6.84858765 -4.19514221 5.99099854 -4.19189453 5.10742188 C-4.19109894 4.34876831 -4.19030334 3.59011475 -4.18948364 2.80847168 C-3.96268354 -0.30993441 -3.16816638 0.06465646 0 0 Z " fill="#C29341" transform="translate(512.0625,269.9375)"/>
<path d="M0 0 C1.85103961 1.77984578 3.64627402 3.54049744 5.21484375 5.578125 C9.5539571 11.16237522 14.94318829 14.45428639 21 18 C20 20 20 20 17.54736328 20.88549805 C14.07536674 21.82822732 10.60352979 22.76909451 7.125 23.6875 C5.91457031 24.02072266 4.70414063 24.35394531 3.45703125 24.69726562 C1.71873047 25.16229492 1.71873047 25.16229492 -0.0546875 25.63671875 C-1.12187012 25.92248779 -2.18905273 26.20825684 -3.28857422 26.50268555 C-6 27 -6 27 -9 26 C-8.59007812 25.39414062 -8.18015625 24.78828125 -7.7578125 24.1640625 C-3.88847915 18.14715657 -1.93458306 13.06399141 -1 6 C-0.690625 4.205625 -0.690625 4.205625 -0.375 2.375 C-0.25125 1.59125 -0.1275 0.8075 0 0 Z " fill="#13100D" transform="translate(636,694)"/>
<path d="M0 0 C0.33 0 0.66 0 1 0 C1.21914063 1.05058594 1.43828125 2.10117187 1.6640625 3.18359375 C3.5246281 11.5886663 5.56237878 18.14023169 11 25 C11.495 25.99 11.495 25.99 12 27 C8.68646971 26.18649855 5.37659097 25.3591817 2.06884766 24.52246094 C0.57939077 24.14631771 -0.9105821 23.77221558 -2.40087891 23.39941406 C-4.97747835 22.75268022 -7.55136649 22.09592793 -10.125 21.4375 C-10.96651611 21.22778564 -11.80803223 21.01807129 -12.67504883 20.80200195 C-13.46548584 20.59792725 -14.25592285 20.39385254 -15.0703125 20.18359375 C-15.77945801 20.00368896 -16.48860352 19.82378418 -17.21923828 19.63842773 C-19 19 -19 19 -21 17 C-20.33613281 16.68546875 -19.67226563 16.3709375 -18.98828125 16.046875 C-11.21999642 12.28180848 -6.2390143 8.67778308 -1.234375 1.609375 C-0.82703125 1.07828125 -0.4196875 0.5471875 0 0 Z " fill="#16130E" transform="translate(386,695)"/>
<path d="M0 0 C5.86217888 0.12743867 10.6686527 2.41162627 15.98828125 4.734375 C19.32538336 6.13673698 22.68370911 7.22959256 26.16015625 8.2265625 C28.33627953 9.14136592 29.52902036 10.16243553 31 12 C30.74853421 14.13745922 30.54074221 15.45925779 29 17 C21.97628696 16.88671431 15.72440357 15.19246564 9.0625 13.125 C7.80107178 12.74009399 7.80107178 12.74009399 6.51416016 12.34741211 C5.71671387 12.09096924 4.91926758 11.83452637 4.09765625 11.5703125 C3.02269897 11.22637451 3.02269897 11.22637451 1.92602539 10.87548828 C-0.26140801 9.88117517 -1.5137296 8.88412087 -3 7 C-2.75546876 3.65807308 -2.39456443 2.39456443 0 0 Z " fill="#C0903F" transform="translate(405,361)"/>
<path d="M0 0 C2 2 2 2 2.453125 4.3125 C1.79192411 8.23410527 -0.24402291 9.48190401 -3.25 12 C-6.19061951 14.48941334 -8.79636189 16.73875615 -11.16796875 19.78125 C-13 22 -13 22 -16.0625 22.5 C-19 22 -19 22 -20.875 20.875 C-22.60628209 17.98952984 -22.5079041 16.32915264 -22 13 C-20.00777304 10.52391404 -17.61603257 8.64473987 -15.125 6.6875 C-14.47402344 6.15060547 -13.82304687 5.61371094 -13.15234375 5.06054688 C-8.57187549 1.31589602 -6.15425484 -0.38464093 0 0 Z " fill="#BE9041" transform="translate(446,637)"/>
<path d="M0 0 C2 2 2 2 2.0625 4.9375 C1 8 1 8 -1.6875 9.625 C-3.11094176 10.12528916 -4.55243626 10.57451801 -6 11 C-7.15757812 11.3403125 -8.31515625 11.680625 -9.5078125 12.03125 C-11.99702118 12.7468336 -14.49044177 13.44796384 -16.98828125 14.1328125 C-19.89092651 14.86951788 -19.89092651 14.86951788 -22 16 C-25.5625 16.125 -25.5625 16.125 -29 16 C-30 15 -30 15 -30.375 12.625 C-30 10 -30 10 -28.125 8.4375 C-23.81082827 6.452981 -19.42998406 4.70696633 -15 3 C-14.28070312 2.69578125 -13.56140625 2.3915625 -12.8203125 2.078125 C-8.4166425 0.26182531 -4.84741599 -0.4847416 0 0 Z " fill="#BA8B3B" transform="translate(619,362)"/>
<path d="M0 0 C2.27570013 1.54319106 4.12677668 2.97525886 6.125 4.8125 C7.14783239 5.7155296 8.17125718 6.61788871 9.1953125 7.51953125 C10.12085938 8.33808594 11.04640625 9.15664063 12 10 C12.77214844 10.54011719 13.54429687 11.08023438 14.33984375 11.63671875 C16 13 16 13 16.4375 16 C16 19 16 19 14.875 20.875 C12.03925432 22.57644741 10.26632876 22.43787741 7 22 C4.84094436 20.09234125 3.17175764 18.38776677 1.375 16.1875 C-2.16016939 11.93071536 -2.16016939 11.93071536 -6.3203125 8.3125 C-6.87460937 7.879375 -7.42890625 7.44625 -8 7 C-8.25 3.8125 -8.25 3.8125 -8 1 C-5.10231621 -0.4488419 -3.22265605 -0.35936093 0 0 Z " fill="#B88B3C" transform="translate(584,637)"/>
<path d="M0 0 C2.375 -0.125 2.375 -0.125 5 0 C5.66 0.66 6.32 1.32 7 2 C6.74412529 7.70031991 4.89378725 11.95677814 2.25 16.875 C1.91484375 17.55046875 1.5796875 18.2259375 1.234375 18.921875 C-0.38475319 21.97613954 -1.3765838 23.74731355 -4.640625 25.0703125 C-7 25 -7 25 -9 23 C-8.76963154 17.10702629 -6.66539469 12.71204904 -3.9375 7.5625 C-3.37192383 6.46518555 -3.37192383 6.46518555 -2.79492188 5.34570312 C-1.87240704 3.55906047 -0.9374688 1.77884171 0 0 Z " fill="#C39542" transform="translate(539,304)"/>
<path d="M0 0 C2.75 0.5625 2.75 0.5625 4.015625 1.9609375 C5.3996859 4.10710788 6.58779256 6.28799587 7.75 8.5625 C8.23210937 9.48804688 8.71421875 10.41359375 9.2109375 11.3671875 C13.2174435 19.53514725 13.2174435 19.53514725 11.75 24.5625 C10.1 24.8925 8.45 25.2225 6.75 25.5625 C-4.3425484 8.66406457 -4.3425484 8.66406457 -3.25 1.5625 C-2.25 0.5625 -2.25 0.5625 0 0 Z " fill="#BF9140" transform="translate(481.25,303.4375)"/>
<path d="M0 0 C2.375 0.75 2.375 0.75 3.375 1.75 C3.50037741 3.89307896 3.55074364 6.04078886 3.5625 8.1875 C3.57667969 9.36183594 3.59085938 10.53617188 3.60546875 11.74609375 C3.375 14.75 3.375 14.75 1.375 16.75 C-1.125 17.0625 -1.125 17.0625 -3.625 16.75 C-5.84764871 13.41602694 -5.92175463 12.15485109 -5.9375 8.25 C-5.95425781 7.2909375 -5.97101563 6.331875 -5.98828125 5.34375 C-5.625 2.75 -5.625 2.75 -4.26953125 0.890625 C-2.625 -0.25 -2.625 -0.25 0 0 Z " fill="#BA8C3F" transform="translate(512.625,641.25)"/>
<path d="M0 0 C3.59286341 -0.54674008 5.35825179 -0.41137706 8.4375 1.5625 C10 4 10 4 9.8125 7.6875 C9 11 9 11 8 12 C2.73728814 12.45762712 2.73728814 12.45762712 0.1875 10.875 C-1.4717187 8.25518099 -1.80766941 6.07728941 -2 3 C-1.34 2.01 -0.68 1.02 0 0 Z " fill="#B9893F" transform="translate(537,634)"/>
<path d="M0 0 C2 2 2 2 2.3125 5.4375 C2 9 2 9 0.875 10.9375 C-1.84949899 12.48138276 -3.92891945 12.3267107 -7 12 C-9 10 -9 10 -9.375 7.125 C-9 4 -9 4 -7.3125 1.625 C-4.57772115 -0.29673649 -3.27359086 -0.51688277 0 0 Z " fill="#B98C3E" transform="translate(486,634)"/>
<path d="M0 0 C5.28 1.32 10.56 2.64 16 4 C14.35 5.32 12.7 6.64 11 8 C9.70153849 9.54384007 8.44846051 11.12730568 7.25 12.75 C6.18735991 14.18225403 5.10971715 15.60390423 4 17 C3.67 17 3.34 17 3 17 C2.86722656 16.19175781 2.73445313 15.38351562 2.59765625 14.55078125 C2.42105469 13.48214844 2.24445313 12.41351562 2.0625 11.3125 C1.88847656 10.25675781 1.71445312 9.20101562 1.53515625 8.11328125 C1.06886987 5.40065172 0.53979276 2.69896382 0 0 Z " fill="#1F1A12" transform="translate(405,600)"/>
<path d="M0 0 C3.0625 0.3125 3.0625 0.3125 4.9375 1.5 C6.46909584 3.96757108 6.49072025 5.45769831 6.0625 8.3125 C5 10.1875 5 10.1875 3.0625 11.3125 C-0.5 11.1875 -0.5 11.1875 -3.9375 10.3125 C-5.9375 7.3125 -5.9375 7.3125 -5.6875 4.75 C-4.58727173 1.17425813 -3.7416128 0.39804391 0 0 Z " fill="#D8AA4E" transform="translate(384.9375,351.6875)"/>
<path d="M0 0 C0.66 0.33 1.32 0.66 2 1 C1.68289063 1.69480469 1.36578125 2.38960937 1.0390625 3.10546875 C-0.09401052 6.26188644 -0.40480011 8.97280167 -0.625 12.3125 C-0.69976563 13.38113281 -0.77453125 14.44976563 -0.8515625 15.55078125 C-0.90054688 16.35902344 -0.94953125 17.16726563 -1 18 C-3.94181937 15.12993232 -6.59660129 12.04604062 -9.28125 8.9375 C-10.80026938 7.22515088 -12.36215149 5.59790099 -14 4 C-13.15695312 3.79503906 -12.31390625 3.59007812 -11.4453125 3.37890625 C-10.34960938 3.10949219 -9.25390625 2.84007812 -8.125 2.5625 C-7.03445313 2.29566406 -5.94390625 2.02882813 -4.8203125 1.75390625 C-2.07515279 1.1213522 -2.07515279 1.1213522 0 0 Z " fill="#1E1911" transform="translate(617,600)"/>
<path d="M0 0 C2 2 2 2 2.3125 4.9375 C2 8 2 8 0.875 9.875 C-1.84218824 11.50531294 -3.89652746 11.33015665 -7 11 C-9 9 -9 9 -9.3125 6.0625 C-9 3 -9 3 -7.875 1.125 C-5.15781176 -0.50531294 -3.10347254 -0.33015665 0 0 Z " fill="#C59440" transform="translate(642,352)"/>
<path d="M0 0 C1 1 1 1 1.25 3.875 C1 7 1 7 -0.1875 8.875 C-2.65507108 10.40659584 -4.14519831 10.42822025 -7 10 C-8.8125 8.8125 -8.8125 8.8125 -10 7 C-10.42674516 4.15503228 -10.36066991 2.63647631 -8.9375 0.125 C-5.85798867 -1.66310335 -3.35666727 -0.74592606 0 0 Z " fill="#C19040" transform="translate(464,616)"/>
<path d="M0 0 C1 1 1 1 1.125 3.9375 C1 7 1 7 0 9 C-3.23097953 9.86159454 -5.22486274 10.30597523 -8.375 9.0625 C-8.91125 8.711875 -9.4475 8.36125 -10 8 C-10.35664336 2.65034965 -10.35664336 2.65034965 -8.9375 0.0625 C-5.84787273 -1.63181173 -3.32782582 -0.73951685 0 0 Z " fill="#392E1A" transform="translate(614,555)"/>
<path d="M0 0 C3.5 0.25 3.5 0.25 5.5 2.25 C5.3125 5.25 5.3125 5.25 4.5 8.25 C1.04970958 10.55019361 -0.44554358 10.68132515 -4.5 10.25 C-6.5 7.25 -6.5 7.25 -6.25 4.6875 C-5.03772664 0.74761157 -4.12711402 0.29479386 0 0 Z " fill="#CB9D47" transform="translate(594.5,279.75)"/>
<path d="M0 0 C1.8125 1.1875 1.8125 1.1875 3 3 C3.4334014 5.88934264 3.42525784 7.35092224 1.8125 9.8125 C-0.64907776 11.42525784 -2.11065736 11.4334014 -5 11 C-6.8125 9.8125 -6.8125 9.8125 -8 8 C-8.4334014 5.11065736 -8.42525784 3.64907776 -6.8125 1.1875 C-4.35092224 -0.42525784 -2.88934264 -0.4334014 0 0 Z " fill="#B98A3F" transform="translate(566,615)"/>
<path d="M0 0 C1.8125 1.1875 1.8125 1.1875 3 3 C3.4334014 5.88934264 3.42525784 7.35092224 1.8125 9.8125 C-0.64907776 11.42525784 -2.11065736 11.4334014 -5 11 C-6.8125 9.8125 -6.8125 9.8125 -8 8 C-8.4334014 5.11065736 -8.42525784 3.64907776 -6.8125 1.1875 C-4.35092224 -0.42525784 -2.88934264 -0.4334014 0 0 Z " fill="#AD8138" transform="translate(514,247)"/>
<path d="M0 0 C3.0625 0.3125 3.0625 0.3125 4.9375 1.5 C6.44582602 3.93008081 6.42273622 5.50265752 6.0625 8.3125 C4.0625 10.3125 4.0625 10.3125 0.5625 10.5625 C-2.9375 10.3125 -2.9375 10.3125 -4.9375 8.3125 C-5.1875 5.3125 -5.1875 5.3125 -4.9375 2.3125 C-2.9375 0.3125 -2.9375 0.3125 0 0 Z " fill="#E9C262" transform="translate(389.9375,302.6875)"/>
<path d="M0 0 C3.5 0.25 3.5 0.25 5.5 2.25 C5.75 5.25 5.75 5.25 5.5 8.25 C3.5 10.25 3.5 10.25 0.5625 10.5625 C-2.5 10.25 -2.5 10.25 -4.375 9.0625 C-5.88332602 6.63241919 -5.86023622 5.05984248 -5.5 2.25 C-3.5 0.25 -3.5 0.25 0 0 Z " fill="#E9C161" transform="translate(429.5,279.75)"/>
<path d="M0 0 C3.0625 0.3125 3.0625 0.3125 5 1.5 C6.0625 3.3125 6.0625 3.3125 5.875 5.875 C5.0625 8.3125 5.0625 8.3125 3.0625 10.3125 C-0.5 10.5 -0.5 10.5 -3.9375 10.3125 C-4.9375 9.3125 -4.9375 9.3125 -5.125 5.875 C-4.89182999 1.44476989 -4.45438775 0.47387104 0 0 Z " fill="#D2A54B" transform="translate(632.9375,302.6875)"/>
<path d="M0 0 C1.8125 1.1875 1.8125 1.1875 3 3 C3.3125 5.5625 3.3125 5.5625 3 8 C1 10 1 10 -2.5 10.25 C-6 10 -6 10 -8 8 C-8.36487512 5.15397406 -8.40199375 3.6135694 -6.8125 1.1875 C-4.35092224 -0.42525784 -2.88934264 -0.4334014 0 0 Z " fill="#B18336" transform="translate(467,373)"/>
<path d="M0 0 C3 0.25 3 0.25 5 2.25 C5.25 5.25 5.25 5.25 5 8.25 C3 10.25 3 10.25 0 10.4375 C-3 10.25 -3 10.25 -5 9.25 C-5.125 5.875 -5.125 5.875 -5 2.25 C-3 0.25 -3 0.25 0 0 Z " fill="#332919" transform="translate(414,553.75)"/>
<path d="M0 0 C1.875 1.1875 1.875 1.1875 3 3 C2.75546876 6.34192692 2.39456443 7.60543557 0 10 C-3 10.25 -3 10.25 -6 10 C-8 8 -8 8 -8.3125 5.5625 C-8 3 -8 3 -6.8125 1.1875 C-4.35092224 -0.42525784 -2.88934264 -0.4334014 0 0 Z " fill="#B7883A" transform="translate(561,373)"/>
<path d="M0 0 C2.4375 0.8125 2.4375 0.8125 4.4375 2.8125 C4.80546448 5.68262296 4.81259409 7.22024618 3.25 9.6875 C1.4375 10.8125 1.4375 10.8125 -1.125 10.625 C-3.5625 9.8125 -3.5625 9.8125 -5.5625 7.8125 C-5.93046448 4.94237704 -5.93759409 3.40475382 -4.375 0.9375 C-2.5625 -0.1875 -2.5625 -0.1875 0 0 Z " fill="#BB8E41" transform="translate(474.5625,281.1875)"/>
<path d="M0 0 C2 2 2 2 2.3125 5 C2.1578125 6.485 2.1578125 6.485 2 8 C-1 10 -1 10 -4.125 9.75 C-5.548125 9.37875 -5.548125 9.37875 -7 9 C-8.35439668 6.29120665 -8.06501451 3.99066732 -8 1 C-5.23749964 -0.38125018 -3.05268901 -0.19079306 0 0 Z " fill="#372B18" transform="translate(451,548)"/>
<path d="M0 0 C3.0625 0.1875 3.0625 0.1875 5.0625 2.1875 C5.42737512 5.03352594 5.46449375 6.5739306 3.875 9 C1.42905047 10.60251866 -0.07131787 10.6284511 -2.9375 10.1875 C-4.9375 7.1875 -4.9375 7.1875 -4.625 4.0625 C-3.71016322 0.23681893 -3.71016322 0.23681893 0 0 Z " fill="#2D2618" transform="translate(433.9375,523.8125)"/>
<path d="M0 0 C2 2 2 2 2.25 4.5 C2 7 2 7 0 9 C-3 9.25 -3 9.25 -6 9 C-6.66 8.34 -7.32 7.68 -8 7 C-7.75 3.4375 -7.75 3.4375 -7 0 C-4.29393021 -1.35303489 -2.8671629 -0.7884698 0 0 Z " fill="#C29445" transform="translate(553,282)"/>
<path d="M0 0 C3 0.25 3 0.25 5 2.25 C5.36796448 5.12012296 5.37509409 6.65774618 3.8125 9.125 C2 10.25 2 10.25 -0.5625 10.0625 C-3 9.25 -3 9.25 -5 7.25 C-5.25 4.75 -5.25 4.75 -5 2.25 C-3 0.25 -3 0.25 0 0 Z " fill="#292317" transform="translate(589,523.75)"/>
<path d="M0 0 C5.56818182 0.56818182 5.56818182 0.56818182 7 2 C7.1875 4.9375 7.1875 4.9375 7 8 C5 10 5 10 2.5625 10.3125 C0 10 0 10 -1.875 8.8125 C-3 7 -3 7 -2.8125 4.4375 C-2 2 -2 2 0 0 Z " fill="#F9F5EE" transform="translate(554,481)"/>
<path d="M0 0 C2.5 0.25 2.5 0.25 4.5 2.25 C4.75 5.25 4.75 5.25 4.5 8.25 C2.5 10.25 2.5 10.25 -0.625 10.375 C-2.048125 10.313125 -2.048125 10.313125 -3.5 10.25 C-4.88125018 7.48749964 -4.69079306 5.30268901 -4.5 2.25 C-2.5 0.25 -2.5 0.25 0 0 Z " fill="#F9F6EF" transform="translate(467.5,480.75)"/>
<path d="M0 0 C2.5625 0.3125 2.5625 0.3125 4.4375 1.5 C5.5625 3.3125 5.5625 3.3125 5.3125 5.9375 C4.5625 8.3125 4.5625 8.3125 3.5625 9.3125 C0.625 9.5 0.625 9.5 -2.4375 9.3125 C-4.4375 7.3125 -4.4375 7.3125 -4.6875 4.8125 C-4.34234788 1.3609788 -3.44095645 0.44114826 0 0 Z " fill="#2A241A" transform="translate(607.4375,502.6875)"/>
<path d="M0 0 C2.5 0.25 2.5 0.25 4.5 2.25 C4.6875 5.3125 4.6875 5.3125 4.5 8.25 C3.5 9.25 3.5 9.25 0 9.375 C-3.5 9.25 -3.5 9.25 -4.5 8.25 C-4.6875 5.3125 -4.6875 5.3125 -4.5 2.25 C-2.5 0.25 -2.5 0.25 0 0 Z " fill="#262218" transform="translate(415.5,502.75)"/>
<path d="M0 0 C3.0625 0.1875 3.0625 0.1875 5.0625 2.1875 C5.3125 4.6875 5.3125 4.6875 5.0625 7.1875 C3.0625 9.1875 3.0625 9.1875 -0.0625 9.3125 C-1.485625 9.250625 -1.485625 9.250625 -2.9375 9.1875 C-4.30373674 6.45502652 -4.065926 4.20551098 -3.9375 1.1875 C-2.9375 0.1875 -2.9375 0.1875 0 0 Z " fill="#2B2519" transform="translate(574.9375,547.8125)"/>
<path d="M0 0 C3.29714793 0.32971479 4.6226839 0.6226839 7 3 C6.44444444 7.55555556 6.44444444 7.55555556 5 9 C3.00041636 9.04080783 0.99954746 9.04254356 -1 9 C-1.625 5.625 -1.625 5.625 -2 2 C-1.34 1.34 -0.68 0.68 0 0 Z " fill="#F9F4EA" transform="translate(449,499)"/>
<path d="M0 0 C2.5 0.25 2.5 0.25 4.5 2.25 C4.17028521 5.54714793 3.8773161 6.8726839 1.5 9.25 C-3.05555556 8.69444444 -3.05555556 8.69444444 -4.5 7.25 C-4.6875 4.8125 -4.6875 4.8125 -4.5 2.25 C-2.5 0.25 -2.5 0.25 0 0 Z " fill="#DDBB66" transform="translate(362.5,649.75)"/>
<path d="M0 0 C4.55555556 0.55555556 4.55555556 0.55555556 6 2 C6.125 5 6.125 5 6 8 C5 9 5 9 1.9375 9.0625 C0.968125 9.041875 -0.00125 9.02125 -1 9 C-1.625 5.625 -1.625 5.625 -2 2 C-1.34 1.34 -0.68 0.68 0 0 Z " fill="#FAF6EE" transform="translate(570,499)"/>
<path d="M0 0 C4.55555556 0.55555556 4.55555556 0.55555556 6 2 C6.1875 4.4375 6.1875 4.4375 6 7 C5.34 7.66 4.68 8.32 4 9 C-0.55555556 8.44444444 -0.55555556 8.44444444 -2 7 C-2.1875 4.5625 -2.1875 4.5625 -2 2 C-1.34 1.34 -0.68 0.68 0 0 Z " fill="#E3C36A" transform="translate(660,650)"/>
<path d="M0 0 C2.5625 0.1875 2.5625 0.1875 4.5625 2.1875 C4.1875 4.8125 4.1875 4.8125 3.5625 7.1875 C1.25 7.875 1.25 7.875 -1.4375 8.1875 C-3.3125 7 -3.3125 7 -4.4375 5.1875 C-4.02450713 1.6770606 -3.6499568 0.28076591 0 0 Z " fill="#F9F5EC" transform="translate(617.4375,529.8125)"/>
<path d="M0 0 C2.4375 0.8125 2.4375 0.8125 4.4375 2.8125 C4.0625 4.9375 4.0625 4.9375 3.4375 6.8125 C1.4575 7.1425 -0.5225 7.4725 -2.5625 7.8125 C-3.5525 6.1625 -4.5425 4.5125 -5.5625 2.8125 C-3.70773038 0.37201366 -3.14722556 -0.2302848 0 0 Z " fill="#F8EBC3" transform="translate(437.5625,479.1875)"/>
<path d="M0 0 C1 1 1 1 1.1875 3.4375 C1 6 1 6 -1 8 C-4.125 7.625 -4.125 7.625 -7 7 C-7 5.02 -7 3.04 -7 1 C-4.51588385 -0.24205807 -2.74800896 -0.14092354 0 0 Z " fill="#F8F4E7" transform="translate(410,530)"/>
<path d="M0 0 C1.94712891 0.02320313 1.94712891 0.02320313 3.93359375 0.046875 C6.93630908 0.21494949 9.64631806 0.55326289 12.5625 1.25 C12.5625 1.58 12.5625 1.91 12.5625 2.25 C11.46550781 2.22679687 10.36851562 2.20359375 9.23828125 2.1796875 C7.783861 2.16092079 6.32943336 2.14272156 4.875 2.125 C4.15376953 2.10824219 3.43253906 2.09148437 2.68945312 2.07421875 C-1.46905694 2.03624149 -4.76465405 2.2238359 -8.4375 4.25 C-11.12714983 7.70812121 -12.98181297 11.12555342 -14.4375 15.25 C-15.25321335 12.89758796 -15.55436468 11.62353681 -14.80078125 9.21484375 C-14.45402344 8.54582031 -14.10726563 7.87679688 -13.75 7.1875 C-13.41613281 6.51589844 -13.08226562 5.84429687 -12.73828125 5.15234375 C-9.26179361 0.06811108 -5.98194257 -0.11857171 0 0 Z " fill="#E9D682" transform="translate(423.4375,464.75)"/>
<path d="M0 0 C4.55384615 -0.36923077 4.55384615 -0.36923077 6.8125 1.5 C7.204375 1.995 7.59625 2.49 8 3 C7.67 3.99 7.34 4.98 7 6 C4.125 6.625 4.125 6.625 1 7 C0.34 6.34 -0.32 5.68 -1 5 C-0.625 2.375 -0.625 2.375 0 0 Z " fill="#FCF1C9" transform="translate(414,481)"/>
<path d="M0 0 C0.78375 0.04125 1.5675 0.0825 2.375 0.125 C3.5 4.875 3.5 4.875 2.375 7.125 C0.395 7.125 -1.585 7.125 -3.625 7.125 C-4.25 4.75 -4.25 4.75 -4.625 2.125 C-2.625 0.125 -2.625 0.125 0 0 Z " fill="#F9ECC6" transform="translate(606.625,480.875)"/>
<path d="M0 0 C0.66 0 1.32 0 2 0 C2.93619813 3.15506142 3.1057123 5.96586502 3.0625 9.25 C3.05347656 10.14203125 3.04445313 11.0340625 3.03515625 11.953125 C3.02355469 12.62859375 3.01195312 13.3040625 3 14 C2.34 14 1.68 14 1 14 C0.44021816 12.42298018 -0.09719401 10.83800758 -0.625 9.25 C-0.92664063 8.36828125 -1.22828125 7.4865625 -1.5390625 6.578125 C-2.07333427 3.58982529 -1.62433191 2.50076998 0 0 Z " fill="#B3873D" transform="translate(379,644)"/>
<path d="M0 0 C1.32 0.33 2.64 0.66 4 1 C-2.56922919 5.55849554 -8.96065975 9.74139487 -17 11 C-17.66 10.67 -18.32 10.34 -19 10 C-17.12616097 9.20558928 -15.25087114 8.41460026 -13.375 7.625 C-11.80878906 6.96371094 -11.80878906 6.96371094 -10.2109375 6.2890625 C-7 5 -7 5 -3.6640625 4.0234375 C-2.78492188 3.68570313 -1.90578125 3.34796875 -1 3 C-0.67 2.01 -0.34 1.02 0 0 Z " fill="#AD863D" transform="translate(450,577)"/>
<path d="M0 0 C0.66 0.33 1.32 0.66 2 1 C-4.00917174 7.68520357 -9.82747779 12.08274778 -19 13 C-17.51462592 10.02925184 -15.38249336 9.88283888 -12.3125 8.75 C-6.89704908 6.58769242 -3.72146561 4.44508392 0 0 Z " fill="#A8823B" transform="translate(623,575)"/>
<path d="M0 0 C1.98 0 3.96 0 6 0 C6.33 1.65 6.66 3.3 7 5 C5.0085944 5.38133299 3.00720923 5.71325582 1 6 C0 5 0 5 -0.0625 2.4375 C-0.041875 1.633125 -0.02125 0.82875 0 0 Z " fill="#F8EFD4" transform="translate(583,480)"/>
<path d="M0 0 C0.66 0 1.32 0 2 0 C-0.05764921 6.45353615 -2.42383482 12.7361263 -5 19 C-6.4650113 14.49628572 -4.86369593 11.41994594 -3.0625 7.25 C-2.77181641 6.55261719 -2.48113281 5.85523438 -2.18164062 5.13671875 C-1.46448297 3.42024305 -0.73356598 1.70952768 0 0 Z " fill="#DFCD79" transform="translate(399,497)"/>
<path d="M0 0 C1.98 0 3.96 0 6 0 C6.66 1.32 7.32 2.64 8 4 C8.66 4 9.32 4 10 4 C9.64505955 6.62655933 9.27538036 8.57968261 7.8125 10.8125 C5.20638339 12.51995571 3.0400645 12.20267097 0 12 C0 11.67 0 11.34 0 11 C1.98 10.34 3.96 9.68 6 9 C6 7.02 6 5.04 6 3 C4.02 2.34 2.04 1.68 0 1 C0 0.67 0 0.34 0 0 Z " fill="#E5CC71" transform="translate(413,502)"/>
<path d="M0 0 C2.0625 0.4375 2.0625 0.4375 4 1 C4.33 2.32 4.66 3.64 5 5 C3.35 5.33 1.7 5.66 0 6 C-0.38218767 4.34385343 -0.71395102 2.67542976 -1 1 C-0.67 0.67 -0.34 0.34 0 0 Z " fill="#F7F3EC" transform="translate(432,570)"/>
<path d="M0 0 C0.33 0 0.66 0 1 0 C1.33 3.63 1.66 7.26 2 11 C1.01 11.33 0.02 11.66 -1 12 C-1.14285714 3.42857143 -1.14285714 3.42857143 0 0 Z " fill="#9D7636" transform="translate(642,646)"/>
<path d="M0 0 C0 3 0 3 -2.1875 5.5625 C-4.81277706 7.83774012 -6.72443519 8.97053677 -10 10 C-6.92118304 6.12948725 -3.99926986 2.97088618 0 0 Z " fill="#231C13" transform="translate(677,607)"/>
<path d="M0 0 C2.475 0.495 2.475 0.495 5 1 C5 2.32 5 3.64 5 5 C3.35 5 1.7 5 0 5 C0 3.35 0 1.7 0 0 Z " fill="#F8F3EB" transform="translate(589,571)"/>
<path d="M0 0 C1.12758089 3.38274266 0.81750262 4.76778223 0.0625 8.1875 C-0.13214844 9.08855469 -0.32679688 9.98960937 -0.52734375 10.91796875 C-0.68332031 11.60503906 -0.83929688 12.29210937 -1 13 C-1.33 13 -1.66 13 -2 13 C-2.05416188 11.39620659 -2.09286638 9.79188594 -2.125 8.1875 C-2.14820313 7.29417969 -2.17140625 6.40085937 -2.1953125 5.48046875 C-2 3 -2 3 0 0 Z " fill="#EED26E" transform="translate(391,521)"/>
<path d="M0 0 C1.98 0.495 1.98 0.495 4 1 C3.67 2.32 3.34 3.64 3 5 C1.68 5 0.36 5 -1 5 C-0.67 3.35 -0.34 1.7 0 0 Z " fill="#F8F0DA" transform="translate(562,527)"/>
<path d="M0 0 C1.98 0.495 1.98 0.495 4 1 C3.67 2.32 3.34 3.64 3 5 C1.68 5 0.36 5 -1 5 C-0.67 3.35 -0.34 1.7 0 0 Z " fill="#F9F5EA" transform="translate(459,527)"/>
<path d="M0 0 C0 0.66 0 1.32 0 2 C-0.61875 2.2475 -1.2375 2.495 -1.875 2.75 C-4.35068687 4.20628639 -4.95125002 5.37812506 -6 8 C-6.6875 5.6875 -6.6875 5.6875 -7 3 C-4.87164172 -0.24854684 -4.06968429 0 0 0 Z " fill="#A57E3B" transform="translate(409,361)"/>
<path d="M0 0 C0.33 0 0.66 0 1 0 C1 2.97 1 5.94 1 9 C0.01 8.67 -0.98 8.34 -2 8 C-2.6875 5.9375 -2.6875 5.9375 -3 4 C-2.34 3.67 -1.68 3.34 -1 3 C-0.67 2.01 -0.34 1.02 0 0 Z " fill="#A77B37" transform="translate(386,624)"/>
<path d="M0 0 C0 3 0 3 -1.3125 4.60546875 C-1.869375 5.12753906 -2.42625 5.64960937 -3 6.1875 C-3.556875 6.71730469 -4.11375 7.24710938 -4.6875 7.79296875 C-5.120625 8.19128906 -5.55375 8.58960938 -6 9 C-6.66 8.67 -7.32 8.34 -8 8 C-7.04578192 6.85073734 -6.08647955 5.70569459 -5.125 4.5625 C-4.59132813 3.92441406 -4.05765625 3.28632812 -3.5078125 2.62890625 C-2 1 -2 1 0 0 Z " fill="#A9823F" transform="translate(418,606)"/>
<path d="M0 0 C0.94875 0.04125 1.8975 0.0825 2.875 0.125 C0.875 1.45833333 -1.125 2.79166667 -3.125 4.125 C-3.455 5.115 -3.785 6.105 -4.125 7.125 C-4.785 7.125 -5.445 7.125 -6.125 7.125 C-5.03177966 0.20127119 -5.03177966 0.20127119 0 0 Z " fill="#BF9848" transform="translate(385.125,351.875)"/>
<path d="M0 0 C1.2065625 0.0309375 1.2065625 0.0309375 2.4375 0.0625 C2.4375 0.7225 2.4375 1.3825 2.4375 2.0625 C1.1175 2.3925 -0.2025 2.7225 -1.5625 3.0625 C-1.8925 4.3825 -2.2225 5.7025 -2.5625 7.0625 C-3.2225 7.0625 -3.8825 7.0625 -4.5625 7.0625 C-3.5234375 0.0859375 -3.5234375 0.0859375 0 0 Z " fill="#B8914B" transform="translate(443.5625,297.9375)"/>
<path d="M0 0 C1.4540625 0.0309375 1.4540625 0.0309375 2.9375 0.0625 C2.31875 0.26875 1.7 0.475 1.0625 0.6875 C-1.90903645 2.61025888 -2.19274659 4.72844527 -3.0625 8.0625 C-3.7225 7.7325 -4.3825 7.4025 -5.0625 7.0625 C-4.02286585 0.0820993 -4.02286585 0.0820993 0 0 Z " fill="#A47E40" transform="translate(540.0625,633.9375)"/>
<path d="M0 0 C0.66 0.33 1.32 0.66 2 1 C1.34 4.96 0.68 8.92 0 13 C-0.33 13 -0.66 13 -1 13 C-1.02696365 11.20841511 -1.04637917 9.41671527 -1.0625 7.625 C-1.07410156 6.62726563 -1.08570313 5.62953125 -1.09765625 4.6015625 C-1 2 -1 2 0 0 Z " fill="#C39A46" transform="translate(492,482)"/>
<path d="M0 0 C0.33 0 0.66 0 1 0 C1 3.3 1 6.6 1 10 C0.34 10 -0.32 10 -1 10 C-2.46726798 6.18510326 -1.43336419 3.70988378 0 0 Z " fill="#AD7E3A" transform="translate(381,648)"/>
<path d="M0 0 C0.66 0.33 1.32 0.66 2 1 C-0.31 3.31 -2.62 5.62 -5 8 C-5.33 7.01 -5.66 6.02 -6 5 C-4.02 3.35 -2.04 1.7 0 0 Z " fill="#A57F39" transform="translate(334,615)"/>
<path d="M0 0 C0.66 0.66 1.32 1.32 2 2 C0.37660195 3.70884005 -1.29319053 5.37446717 -3 7 C-3.66 7 -4.32 7 -5 7 C-3.70700306 4.11562221 -2.34058637 2.12780579 0 0 Z " fill="#A67C38" transform="translate(628,582)"/>
<path d="M0 0 C0 3 0 3 -2.5 5.6875 C-3.325 6.450625 -4.15 7.21375 -5 8 C-5.66 7.67 -6.32 7.34 -7 7 C-4.78071806 4.09197539 -3.07030857 2.04687238 0 0 Z " fill="#1E1912" transform="translate(527,372)"/>
<path d="M0 0 C-4.75 4 -4.75 4 -7 4 C-7.33 5.32 -7.66 6.64 -8 8 C-8.36075949 3.55063291 -8.36075949 3.55063291 -6.8125 1.1875 C-4.44017475 -0.36678206 -2.77958655 -0.22537188 0 0 Z " fill="#85632E" transform="translate(514,247)"/>
<path d="M0 0 C1.670625 0.061875 1.670625 0.061875 3.375 0.125 C3.375 0.455 3.375 0.785 3.375 1.125 C0.735 1.785 -1.905 2.445 -4.625 3.125 C-4.955 4.445 -5.285 5.765 -5.625 7.125 C-5.75 4.75 -5.75 4.75 -5.625 2.125 C-3.625 0.125 -3.625 0.125 0 0 Z " fill="#BE9F58" transform="translate(429.625,279.875)"/>
</svg>
